<svg width="25" height="28" viewBox="0 0 25 28" fill="none" xmlns="http://www.w3.org/2000/svg">
<path fill-rule="evenodd" clip-rule="evenodd" d="M12.4695 12.4494C11.6539 12.4494 10.9189 13.1844 10.9189 14C10.9189 14.8156 11.6539 15.5505 12.4695 15.5505C13.2851 15.5505 14.02 14.8155 14.02 14C14.02 13.1844 13.2851 12.4494 12.4695 12.4494ZM9.71895 14C9.71895 12.5216 10.9912 11.2494 12.4695 11.2494C13.9478 11.2494 15.22 12.5216 15.22 14C15.22 15.4783 13.9478 16.7505 12.4695 16.7505C10.9912 16.7505 9.71895 15.4783 9.71895 14Z" fill="white"/>
<path fill-rule="evenodd" clip-rule="evenodd" d="M11.9447 0.203492C12.1614 0.0250278 12.4729 0.0206853 12.6945 0.193039C14.0647 1.25881 15.0897 2.62592 15.736 3.99468C16.3777 5.35351 16.6693 6.76477 16.5043 7.91996C16.4937 7.99416 16.4693 8.06571 16.4323 8.13092L13.9951 12.432C13.8317 12.7203 13.4994 12.7387 13.2111 12.5754C12.9228 12.412 12.7877 12.1287 12.951 11.8404L15.3298 7.64258C15.42 6.80115 15.204 5.67819 14.6509 4.50708C14.1402 3.42557 13.3601 2.34276 12.3379 1.45322C11.3786 2.34389 10.6289 3.45303 10.1321 4.56693C9.59179 5.77862 9.37521 6.93936 9.46579 7.78598L11.8445 11.9837C12.0079 12.272 11.7885 12.412 11.5002 12.5754C11.2119 12.7387 10.9639 12.8637 10.8005 12.5754L8.36322 8.27429C8.32627 8.20908 8.30186 8.13753 8.29126 8.06333C8.12657 6.91052 8.417 5.46664 9.03618 4.07819C9.66013 2.67903 10.6449 1.27385 11.9447 0.203492Z" fill="white"/>
<path fill-rule="evenodd" clip-rule="evenodd" d="M11.6182 15.3417C11.9065 15.5051 12.0078 15.8713 11.8444 16.1596L9.46566 20.3574C9.37545 21.1988 9.59149 22.3217 10.1445 23.4929C10.6572 24.5785 11.4414 25.6655 12.4693 26.557C13.4973 25.6655 14.2815 24.5785 14.7942 23.4929C15.3472 22.3217 15.5632 21.1988 15.473 20.3574L13.0943 16.1596C12.9309 15.8713 13.0322 15.5051 13.3205 15.3417C13.6088 15.1784 13.9749 15.2796 14.1383 15.5679L16.5756 19.869C16.6125 19.9342 16.6369 20.0058 16.6475 20.08C16.8126 21.2352 16.521 22.6464 15.8793 24.0053C15.2329 25.374 14.208 26.7411 12.8377 27.8069C12.621 27.9754 12.3177 27.9754 12.101 27.8069C10.7307 26.7411 9.70577 25.374 9.05942 24.0053C8.41774 22.6464 8.12612 21.2352 8.29115 20.08C8.30175 20.0058 8.32616 19.9342 8.36311 19.869L10.8004 15.5679C10.9638 15.2796 11.3299 15.1784 11.6182 15.3417Z" fill="white"/>
<path fill-rule="evenodd" clip-rule="evenodd" d="M19.3446 6.12701C20.8506 5.9745 22.567 6.16414 24.1754 6.85348C24.4235 6.95979 24.57 7.21863 24.5336 7.48603C24.304 9.16944 23.6178 10.7287 22.7442 11.963C21.8778 13.1874 20.7884 14.1452 19.71 14.56C19.6413 14.5864 19.5683 14.5999 19.4946 14.5999H14.6201C14.2887 14.5999 14.02 14.3313 14.02 14C14.02 13.6686 14.2887 13.3999 14.6201 13.3999H19.3777C20.1406 13.0739 21.0149 12.3293 21.7647 11.2698C22.4583 10.2897 23.0149 9.0819 23.2681 7.78501C21.9927 7.32402 20.655 7.20045 19.4655 7.32091C18.1761 7.45148 17.1278 7.8607 16.5249 8.36393L14.1385 12.5753C13.9751 12.8636 13.7881 12.6634 13.4998 12.5C13.2115 12.3366 12.9311 12.272 13.0945 11.9837L15.5317 7.68263C15.5636 7.62641 15.6043 7.5757 15.6524 7.53246C16.4964 6.77286 17.8537 6.27799 19.3446 6.12701Z" fill="white"/>
<path fill-rule="evenodd" clip-rule="evenodd" d="M5.22899 13.44C5.29773 13.4135 5.37074 13.4 5.44438 13.4H10.3189C10.6503 13.4 10.5 13.6686 10.5 14C10.5 14.3314 10.6503 14.6 10.3189 14.6H5.56129C4.79839 14.926 3.92409 15.6706 3.17429 16.7301C2.48067 17.7102 1.92404 18.918 1.67089 20.2149C2.94633 20.6759 4.28401 20.7995 5.47354 20.679C6.76291 20.5485 7.81117 20.1392 8.41405 19.636L10.8005 15.4246C10.9639 15.1363 11.2117 15.3366 11.5 15.5C11.7883 15.6634 12.0079 15.7279 11.8445 16.0162L9.40725 20.3173C9.37539 20.3735 9.33466 20.4242 9.28662 20.4675C8.44261 21.2271 7.08532 21.7219 5.59444 21.8729C4.08839 22.0254 2.37203 21.8358 0.763584 21.1465C0.515527 21.0401 0.368973 20.7813 0.405437 20.5139C0.634993 18.8305 1.32121 17.2713 2.19476 16.0369C3.06123 14.8125 4.15061 13.8547 5.22899 13.44Z" fill="white"/>
<path fill-rule="evenodd" clip-rule="evenodd" d="M14.0199 14.1434C14.0199 13.812 14.2885 13.5434 14.6199 13.5434H19.4944C19.5681 13.5434 19.6411 13.5569 19.7098 13.5834C20.7882 13.9981 21.8776 14.9559 22.744 16.1803C23.6176 17.4146 24.3038 18.9739 24.5334 20.6573C24.5711 20.9338 24.4132 21.1997 24.1525 21.299C22.5562 21.9072 20.8517 22.0961 19.3346 21.9633C17.8303 21.8317 16.4443 21.3771 15.5303 20.6293C15.4729 20.5823 15.4247 20.5252 15.3882 20.4607L12.9509 16.1596C12.7875 15.8713 12.9428 15.7314 13.2311 15.568C13.5194 15.4046 13.8316 15.2797 13.9949 15.568L16.3742 19.7667C17.0458 20.2758 18.1321 20.6535 19.4392 20.7679C20.6438 20.8733 21.9846 20.7497 23.2642 20.3392C23.0093 19.0496 22.4547 17.8488 21.7645 16.8735C21.0147 15.814 20.1404 15.0694 19.3775 14.7434H14.6199C14.2885 14.7434 14.0199 14.4747 14.0199 14.1434Z" fill="white"/>
<path fill-rule="evenodd" clip-rule="evenodd" d="M5.4719 6.16158C6.9535 6.27411 8.32891 6.68862 9.23814 7.34989C9.30738 7.40024 9.36504 7.46483 9.40725 7.53932L11.8445 11.8404C12.0079 12.1287 11.9066 12.4948 11.6183 12.6582C11.33 12.8216 10.9639 12.7203 10.8005 12.432L8.43042 8.24952C7.75246 7.79854 6.66455 7.45562 5.38102 7.35813C4.19179 7.26781 2.88743 7.39276 1.67328 7.79726C1.92753 9.08953 2.48285 10.2929 3.17429 11.2699C3.92409 12.3294 4.79839 13.074 5.56129 13.4L10.3189 13.4C10.6503 13.4 10.9189 13.6686 10.9189 14C10.9189 14.3313 10.6503 14.6 10.3189 14.6L5.44438 14.6C5.37074 14.6 5.29773 14.5864 5.22899 14.56C4.15061 14.1452 3.06123 13.1874 2.19476 11.9631C1.32121 10.7287 0.634993 9.16949 0.405437 7.48609C0.368238 7.21329 0.521472 6.95018 0.777101 6.84793C2.3076 6.23573 3.97819 6.04813 5.4719 6.16158Z" fill="white"/>
</svg>
