<svg width="21" height="21" viewBox="0 0 21 21" fill="none" xmlns="http://www.w3.org/2000/svg">
<path fill-rule="evenodd" clip-rule="evenodd" d="M6.71466 0.636073C6.91566 0.489896 7.19709 0.534333 7.34327 0.735327C7.81151 1.37916 7.95753 1.95047 7.92307 2.45024C7.89227 2.89676 7.7163 3.24389 7.61332 3.44705C7.6051 3.46327 7.59734 3.47856 7.59017 3.49292C7.58502 3.50322 7.57947 3.51332 7.57355 3.52319C7.56014 3.54554 7.54621 3.56857 7.53189 3.59227C7.36889 3.86187 7.15381 4.21763 7.05194 4.63528C6.94684 5.0662 6.9671 5.54618 7.33934 6.0425C7.48846 6.24133 7.44816 6.52339 7.24934 6.67251C7.05052 6.82162 6.76846 6.78133 6.61934 6.58251C6.05408 5.82883 6.02226 5.05881 6.17757 4.42202C6.31414 3.86207 6.59948 3.39302 6.75963 3.12976C6.77151 3.11023 6.78271 3.09183 6.7931 3.0746C6.79612 3.06858 6.79914 3.06256 6.80215 3.05655C6.90735 2.84679 7.00733 2.64745 7.0252 2.38831C7.04281 2.13287 6.9805 1.76668 6.61541 1.26468C6.46923 1.06369 6.51367 0.78225 6.71466 0.636073ZM9.31879 0.636073C9.51978 0.489896 9.80122 0.534333 9.9474 0.735327C10.4156 1.37916 10.5617 1.95047 10.5272 2.45024C10.4964 2.89676 10.3204 3.24389 10.2174 3.44705C10.2092 3.46327 10.2015 3.47856 10.1943 3.49292C10.1891 3.50322 10.1836 3.51332 10.1777 3.52319C10.1643 3.54554 10.1503 3.56857 10.136 3.59227C9.97302 3.86187 9.75793 4.21763 9.65607 4.63528C9.55097 5.0662 9.57122 5.54618 9.94347 6.0425C10.0926 6.24133 10.0523 6.52339 9.85347 6.67251C9.65464 6.82162 9.37258 6.78133 9.22347 6.58251C8.65821 5.82883 8.62638 5.05881 8.7817 4.42202C8.91827 3.86208 9.20361 3.39302 9.36376 3.12976C9.37564 3.11023 9.38684 3.09183 9.39723 3.0746C9.40025 3.06858 9.40327 3.06256 9.40628 3.05655C9.51148 2.84679 9.61145 2.64745 9.62933 2.38831C9.64694 2.13287 9.58463 1.76668 9.21954 1.26468C9.07336 1.06369 9.1178 0.78225 9.31879 0.636073ZM11.923 0.636073C12.124 0.489896 12.4054 0.534333 12.5516 0.735327C13.0198 1.37916 13.1658 1.95047 13.1314 2.45024C13.1006 2.89676 12.9246 3.24389 12.8216 3.44705C12.8134 3.46327 12.8056 3.47856 12.7985 3.49292C12.7933 3.50322 12.7878 3.51332 12.7818 3.52319C12.7684 3.54554 12.7545 3.56857 12.7402 3.59227C12.5772 3.86187 12.3621 4.21763 12.2602 4.63528C12.1551 5.0662 12.1754 5.54618 12.5476 6.0425C12.6968 6.24133 12.6565 6.52339 12.4576 6.67251C12.2588 6.82162 11.9768 6.78133 11.8276 6.58251C11.2624 5.82883 11.2306 5.05881 11.3859 4.42202C11.5224 3.86208 11.8078 3.39302 11.9679 3.12976C11.9798 3.11023 11.991 3.09183 12.0014 3.07461C12.0044 3.06858 12.0074 3.06256 12.0104 3.05655C12.1156 2.84679 12.2156 2.64745 12.2335 2.38831C12.2511 2.13287 12.1888 1.76668 11.8237 1.26468C11.6775 1.06369 11.722 0.78225 11.923 0.636073ZM2.46657 10.0625C2.46657 9.2473 3.03014 8.46667 3.95823 8.46667H15.2082C16.1363 8.46667 16.6999 9.2473 16.6999 10.0625C16.6999 10.0705 16.6997 10.0785 16.6993 10.0865C16.6887 10.2853 16.6753 10.4794 16.6594 10.6686C17.0997 10.3358 17.6364 10.1333 18.2295 10.1333C18.9172 10.1333 19.6083 10.4144 20.0335 10.9757C20.4706 11.5527 20.5685 12.3471 20.2131 13.2421C20.0152 13.7949 19.5918 14.2604 19.1034 14.6411C18.6074 15.0276 18.0086 15.3545 17.4075 15.6179C16.3166 16.0959 15.1393 16.3982 14.4432 16.4439C14.1756 16.7059 13.8936 16.9268 13.6025 17.1125H20.0003C20.1823 17.1125 20.3464 17.2221 20.4161 17.3903C20.4857 17.5585 20.4472 17.752 20.3185 17.8807L19.4852 18.714C19.1669 19.0323 18.7772 19.3962 18.3489 19.6817C17.925 19.9643 17.4196 20.2 16.8753 20.2H4.27114C3.72678 20.2 3.22049 19.9645 2.80472 19.6777C2.39083 19.3923 2.02788 19.0295 1.75127 18.6999L0.932108 17.8807C0.803409 17.752 0.764909 17.5585 0.83456 17.3903C0.904212 17.2221 1.0683 17.1125 1.25031 17.1125H5.56394C3.98863 16.1074 2.67969 14.0706 2.4672 10.0865C2.46678 10.0785 2.46657 10.0705 2.46657 10.0625ZM9.57182 17.1125H9.0012C8.18456 17.1015 7.08095 17.0077 6.0609 16.362C4.80603 15.5676 3.57221 13.8576 3.36662 10.0515C3.37113 9.62331 3.63905 9.36667 3.95823 9.36667H15.2082C15.5274 9.36667 15.7953 9.62332 15.7998 10.0515C15.5943 13.8576 14.3604 15.5676 13.1056 16.362C12.0855 17.0077 10.9819 17.1015 10.1653 17.1125H9.59465C9.59083 17.1125 9.58702 17.1125 9.58323 17.1125C9.57944 17.1125 9.57564 17.1125 9.57182 17.1125ZM8.91725 18.0125H2.3367L2.40184 18.0776C2.41146 18.0873 2.42063 18.0973 2.42934 18.1078C2.67194 18.3989 2.98105 18.7061 3.31568 18.9369C3.65512 19.1709 3.98217 19.3 4.27114 19.3H16.8753C17.1644 19.3 17.4923 19.1711 17.8497 18.9329C18.2026 18.6976 18.542 18.3844 18.8488 18.0776L18.9139 18.0125H10.2492C10.0666 18.0159 9.90194 18.0146 9.75966 18.0135C9.69982 18.013 9.64395 18.0126 9.59239 18.0125H9.57408C9.52252 18.0126 9.46664 18.013 9.40681 18.0135C9.26453 18.0146 9.09982 18.0159 8.91725 18.0125ZM15.2886 15.3898C15.8074 15.2633 16.431 15.0632 17.0463 14.7936C17.604 14.5492 18.1315 14.2575 18.5502 13.9312C18.9738 13.601 19.2516 13.2623 19.3676 12.9336C19.3697 12.9277 19.3719 12.922 19.3742 12.9162C19.6398 12.2521 19.5286 11.7997 19.3161 11.5191C19.0903 11.221 18.6876 11.0333 18.2295 11.0333C17.3438 11.0333 16.5582 11.7703 16.3806 12.7472C16.3673 12.82 16.3372 12.8856 16.295 12.9405C16.0454 13.9332 15.6998 14.7384 15.2886 15.3898Z" fill="#A6BDF2"/>
</svg>
