<svg width="28" height="23" viewBox="0 0 28 23" fill="none" xmlns="http://www.w3.org/2000/svg">
<path fill-rule="evenodd" clip-rule="evenodd" d="M3.88822 0.788138C3.68113 0.692988 3.43802 0.723379 3.26072 0.866579C1.34426 2.41449 0.383493 4.18408 0.133701 5.99027C0.00861976 6.8947 0.0639674 7.79187 0.253274 8.65698C0.282602 8.791 0.320324 8.94326 0.349354 9.05153C0.539431 9.76038 0.816756 10.4446 1.15482 11.09C1.48767 11.7254 1.72978 12.7195 1.89102 13.9127C2.05018 15.0905 2.12339 16.403 2.14927 17.6366C2.17511 18.8685 2.15358 20.0113 2.12552 20.8468C2.1115 21.2643 2.09587 21.6042 2.08378 21.8393C2.07773 21.9569 2.07257 22.0482 2.06895 22.1097L2.06474 22.1794L2.06364 22.1967L2.06331 22.202C2.05245 22.3676 2.11066 22.5302 2.2241 22.6514C2.33754 22.7725 2.49607 22.8412 2.66202 22.8412H4.89219C5.22357 22.8412 5.49219 22.5726 5.49219 22.2412C5.49219 21.7445 5.46561 21.1301 5.43671 20.4623C5.42817 20.265 5.41943 20.0631 5.41112 19.8582C5.37422 18.9487 5.34443 17.9588 5.37003 16.9776C5.39567 15.9948 5.47661 15.0374 5.6556 14.1918C5.76832 13.6593 5.9166 13.1876 6.1042 12.7882C6.41252 13.0794 6.71175 13.3784 7.00188 13.6824C8.76972 15.5353 10.1705 17.5463 11.2133 19.0755C11.5203 19.6074 12.1708 20.541 12.9657 21.3539C13.3695 21.7669 13.8257 22.1644 14.3079 22.4621C14.7851 22.7567 15.3316 22.9806 15.9037 22.9806H24.1274C25.5126 22.9806 26.4485 22.7275 27.0563 22.3223C27.6842 21.9037 27.9333 21.3379 27.9333 20.8474C27.9333 20.8252 27.9321 20.8031 27.9296 20.7811C27.8818 20.3505 27.672 19.8236 27.3736 19.2986C27.0677 18.7603 26.6411 18.1754 26.1096 17.6253C25.0519 16.5305 23.5309 15.5261 21.6683 15.3709C21.4924 15.3563 21.319 15.4198 21.1942 15.5446C21.0504 15.6884 20.7666 15.8507 20.3421 15.9709C19.9287 16.0879 19.4283 16.1515 18.901 16.1357C17.837 16.104 16.7647 15.7557 16.0732 15.0124C15.6874 14.5595 15.0817 13.6328 14.2741 12.3939L14.2735 12.3929C13.475 11.168 12.5055 9.68079 11.4251 8.17878C10.345 6.67718 9.14567 5.14885 7.88278 3.84142C6.62495 2.53922 5.27497 1.42529 3.88822 0.788138ZM1.8687 9.79125C1.97339 10.0419 2.09019 10.2895 2.21782 10.5332C2.6516 11.3613 2.91476 12.5277 3.08021 13.752C3.24773 14.9917 3.32262 16.3536 3.34901 17.6115C3.37543 18.8712 3.3534 20.0369 3.32484 20.8871C3.31507 21.178 3.30452 21.4323 3.29486 21.6412H4.28196C4.27205 21.307 4.25603 20.9362 4.23866 20.5345L4.23861 20.5333L4.22455 20.2061C4.22039 20.108 4.21622 20.0082 4.21211 19.9069C4.17496 18.9913 4.14376 17.9689 4.17044 16.9463C4.19707 15.9255 4.28164 14.888 4.48161 13.9433C4.63183 13.2337 4.85205 12.5522 5.17884 11.9632C4.16331 11.1113 3.05975 10.3602 1.8687 9.79125ZM1.40111 8.28424C3.16725 8.96277 4.74484 10.0071 6.13505 11.2009L6.16757 11.228C6.26042 11.3051 6.51113 11.5131 6.57305 11.5873C7.0265 11.998 7.45883 12.423 7.87009 12.8541C9.71892 14.7918 11.1712 16.8835 12.2178 18.4186C12.2268 18.4317 12.2352 18.4451 12.243 18.4589C12.4989 18.9066 13.0961 19.7708 13.8237 20.515C14.1866 20.8861 14.5667 21.2117 14.9383 21.441C15.3147 21.6734 15.6394 21.7806 15.9037 21.7806H24.1274C25.3906 21.7806 26.0577 21.5458 26.3907 21.3238C26.668 21.1389 26.7229 20.9602 26.7318 20.8753C26.6996 20.6719 26.5776 20.3266 26.3303 19.8915C26.0744 19.441 25.7083 18.937 25.2466 18.4591C24.3689 17.5506 23.1892 16.7793 21.8104 16.5932C21.4906 16.832 21.089 17.0066 20.669 17.1255C20.1286 17.2785 19.5052 17.3543 18.8651 17.3352C17.5982 17.2974 16.1654 16.8814 15.184 15.8183L15.1778 15.8114L15.1693 15.8018C14.7257 15.2842 14.076 14.2875 13.3065 13.107L13.2689 13.0493C12.4689 11.822 11.5133 10.3564 10.451 8.87949C9.38801 7.40172 8.22654 5.92454 7.01968 4.67512C5.92143 3.53813 4.80944 2.61498 3.72351 2.04427C2.21739 3.35598 1.51367 4.77154 1.32239 6.15466C1.22433 6.86365 1.25897 7.57918 1.40111 8.28424Z" fill="white"/>
</svg>
