<svg width="22" height="20" viewBox="0 0 22 20" fill="none" xmlns="http://www.w3.org/2000/svg">
<path fill-rule="evenodd" clip-rule="evenodd" d="M2.76522 9.25H1.00001C0.708996 9.25 0.444252 9.41834 0.320817 9.68188C0.197382 9.94542 0.237541 10.2566 0.423843 10.4801L2.92384 13.4801C3.06634 13.6511 3.27742 13.75 3.50001 13.75C3.72259 13.75 3.93368 13.6511 4.07617 13.4801L6.57618 10.4801C6.76248 10.2566 6.80264 9.94542 6.6792 9.68188C6.55577 9.41834 6.29102 9.25 6.00001 9.25H4.268C4.5455 5.02635 7.99919 1.75 12.3 1.75C16.7802 1.75 20.25 5.30857 20.25 9.7C20.25 14.0858 16.6858 17.65 12.3 17.65C10.3634 17.65 8.54247 17.0043 7.19121 15.8332C6.87819 15.562 6.40453 15.5958 6.13325 15.9088C5.86197 16.2218 5.8958 16.6955 6.20882 16.9668C7.85756 18.3957 10.0367 19.15 12.3 19.15C17.5142 19.15 21.75 14.9142 21.75 9.7C21.75 4.49143 17.6198 0.25 12.3 0.25C7.17048 0.25 3.04572 4.1965 2.76522 9.25ZM12.2998 5.05005C12.714 5.05005 13.0498 5.38584 13.0498 5.80005V9.37541L16.1857 11.2569C16.5409 11.47 16.656 11.9307 16.4429 12.2859C16.2298 12.6411 15.7691 12.7563 15.4139 12.5432L11.9139 10.4432C11.688 10.3076 11.5498 10.0635 11.5498 9.80005V5.80005C11.5498 5.38584 11.8856 5.05005 12.2998 5.05005ZM3.50001 11.8285L2.60129 10.75H4.39873L3.50001 11.8285Z" fill="white"/>
</svg>
