<svg width="22" height="22" viewBox="0 0 22 22" fill="none" xmlns="http://www.w3.org/2000/svg">
<path fill-rule="evenodd" clip-rule="evenodd" d="M10.5014 0.439752C10.7857 0.186749 11.2144 0.186749 11.4986 0.439752L21.4986 9.33975C21.808 9.61513 21.8356 10.0892 21.5603 10.3986C21.2849 10.708 20.8108 10.7356 20.5014 10.4602L19.65 9.70252V21C19.65 21.4142 19.3142 21.75 18.9 21.75H13.603C13.602 21.75 13.601 21.75 13.6 21.75H8.30001C8.29902 21.75 8.29804 21.75 8.29705 21.75H3.00001C2.58579 21.75 2.25001 21.4142 2.25001 21V9.79152L1.49863 10.4602C1.18921 10.7356 0.715141 10.708 0.43976 10.3986C0.16438 10.0892 0.191971 9.61513 0.501387 9.33975L10.5014 0.439752ZM9.05001 20.25H12.85V13.05H9.05001V20.25ZM14.35 20.25V12.3C14.35 11.8858 14.0142 11.55 13.6 11.55H8.30001C7.8858 11.55 7.55001 11.8858 7.55001 12.3V20.25H3.75001V8.45652L11 2.00402L18.15 8.36752V20.25H14.35Z" fill="#24CFFF"/>
</svg>
