<svg width="27" height="26" viewBox="0 0 27 26" fill="none" xmlns="http://www.w3.org/2000/svg">
<path fill-rule="evenodd" clip-rule="evenodd" d="M0 12.1183C0 11.7869 0.268629 11.5183 0.6 11.5183H13.4272C13.7586 11.5183 14.0272 11.7869 14.0272 12.1183V24.422C14.0272 24.7533 13.7586 25.022 13.4272 25.022H0.6C0.268629 25.022 0 24.7533 0 24.422V12.1183ZM1.2 12.7183V23.822H12.8272V12.7183H1.2Z" fill="white"/>
<path fill-rule="evenodd" clip-rule="evenodd" d="M7.32971 5.44291C7.32971 5.11154 7.59834 4.84291 7.92971 4.84291H25.5999C25.9312 4.84291 26.1999 5.11154 26.1999 5.44291V24.422C26.1999 24.7533 25.9312 25.022 25.5999 25.022H7.92971C7.59834 25.022 7.32971 24.7533 7.32971 24.422C7.32971 24.0906 7.59834 23.822 7.92971 23.822H24.9999V6.04291H8.52971V12.1183C8.52971 12.4497 8.26108 12.7183 7.92971 12.7183C7.59834 12.7183 7.32971 12.4497 7.32971 12.1183V5.44291Z" fill="white"/>
<path fill-rule="evenodd" clip-rule="evenodd" d="M16.6994 1.2C14.5326 1.2 12.7182 2.90587 12.7182 5.18115V8.32251C12.7182 8.65388 12.4496 8.92251 12.1182 8.92251C11.7869 8.92251 11.5182 8.65388 11.5182 8.32251V5.18115C11.5182 2.22083 13.8924 0 16.6994 0C19.6597 0 21.8806 2.37413 21.8806 5.18115V8.32251C21.8806 8.65388 21.6119 8.92251 21.2806 8.92251C20.9492 8.92251 20.6806 8.65388 20.6806 8.32251V5.18115C20.6806 3.01436 18.9747 1.2 16.6994 1.2Z" fill="white"/>
<path fill-rule="evenodd" clip-rule="evenodd" d="M10.4713 8.32253C10.4713 7.99116 10.74 7.72253 11.0713 7.72253H13.2965C13.6278 7.72253 13.8965 7.99116 13.8965 8.32253C13.8965 8.6539 13.6278 8.92253 13.2965 8.92253H11.0713C10.74 8.92253 10.4713 8.6539 10.4713 8.32253Z" fill="white"/>
<path fill-rule="evenodd" clip-rule="evenodd" d="M19.7644 8.32253C19.7644 7.99116 20.033 7.72253 20.3644 7.72253H22.5895C22.9209 7.72253 23.1895 7.99116 23.1895 8.32253C23.1895 8.6539 22.9209 8.92253 22.5895 8.92253H20.3644C20.033 8.92253 19.7644 8.6539 19.7644 8.32253Z" fill="white"/>
<path fill-rule="evenodd" clip-rule="evenodd" d="M4.39578 13.6126C4.72715 13.6126 4.99578 13.8812 4.99578 14.2126V16.045C4.99578 17.1535 5.90516 18.0628 7.01358 18.0628C8.122 18.0628 9.03138 17.1535 9.03138 16.045V14.2126C9.03138 13.8812 9.30001 13.6126 9.63138 13.6126C9.96275 13.6126 10.2314 13.8812 10.2314 14.2126V16.045C10.2314 17.8162 8.78474 19.2628 7.01358 19.2628C5.24242 19.2628 3.79578 17.8162 3.79578 16.045V14.2126C3.79578 13.8812 4.0644 13.6126 4.39578 13.6126Z" fill="white"/>
<path fill-rule="evenodd" clip-rule="evenodd" d="M8.37707 14.2126C8.37707 13.8812 8.6457 13.6126 8.97707 13.6126H10.1551C10.4864 13.6126 10.7551 13.8812 10.7551 14.2126C10.7551 14.5439 10.4864 14.8126 10.1551 14.8126H8.97707C8.6457 14.8126 8.37707 14.5439 8.37707 14.2126Z" fill="white"/>
<path fill-rule="evenodd" clip-rule="evenodd" d="M3.14117 14.2126C3.14117 13.8812 3.4098 13.6126 3.74117 13.6126H4.91918C5.25055 13.6126 5.51918 13.8812 5.51918 14.2126C5.51918 14.5439 5.25055 14.8126 4.91918 14.8126H3.74117C3.4098 14.8126 3.14117 14.5439 3.14117 14.2126Z" fill="white"/>
</svg>
