<svg width="22" height="21" viewBox="0 0 22 21" fill="none" xmlns="http://www.w3.org/2000/svg">
<path d="M4 7C5.65685 7 7 5.65685 7 4C7 2.34315 5.65685 1 4 1C2.34315 1 1 2.34315 1 4C1 5.65685 2.34315 7 4 7Z" stroke="white" stroke-width="1.5" stroke-miterlimit="10" stroke-linecap="round" stroke-linejoin="round"/>
<path d="M4 19.9C5.65685 19.9 7 18.5568 7 16.9C7 15.2431 5.65685 13.9 4 13.9C2.34315 13.9 1 15.2431 1 16.9C1 18.5568 2.34315 19.9 4 19.9Z" stroke="white" stroke-width="1.5" stroke-miterlimit="10" stroke-linecap="round" stroke-linejoin="round"/>
<path d="M17.9 7C19.5569 7 20.9 5.65685 20.9 4C20.9 2.34315 19.5569 1 17.9 1C16.2432 1 14.9 2.34315 14.9 4C14.9 5.65685 16.2432 7 17.9 7Z" stroke="white" stroke-width="1.5" stroke-miterlimit="10" stroke-linecap="round" stroke-linejoin="round"/>
<path d="M17.9 19.9C19.5569 19.9 20.9 18.5568 20.9 16.9C20.9 15.2431 19.5569 13.9 17.9 13.9C16.2432 13.9 14.9 15.2431 14.9 16.9C14.9 18.5568 16.2432 19.9 17.9 19.9Z" stroke="white" stroke-width="1.5" stroke-miterlimit="10" stroke-linecap="round" stroke-linejoin="round"/>
</svg>
