<svg width="20" height="19" viewBox="0 0 20 19" fill="none" xmlns="http://www.w3.org/2000/svg">
<path fill-rule="evenodd" clip-rule="evenodd" d="M0.5 3.6C0.5 3.32386 0.723858 3.1 1 3.1H19C19.2761 3.1 19.5 3.32386 19.5 3.6V8.4C19.5 8.47762 19.4819 8.55418 19.4472 8.62361L19.0472 9.42361C19.0431 9.43188 19.0387 9.44004 19.0341 9.44807C17.7069 11.7707 14.4312 11.6817 13.079 9.54128C11.6661 11.8534 8.26396 11.6403 7.03385 9.28924L6.92904 9.45694C5.51359 11.9182 1.90415 11.6574 0.744817 9.1069C0.741636 9.0999 0.738617 9.09283 0.735762 9.08569L0.535762 8.58569C0.512138 8.52663 0.5 8.46361 0.5 8.4V3.6ZM13.7598 8.70314C14.602 10.5359 17.1681 10.6774 18.1593 8.96343L18.5 8.28196V4.1H1.5V8.30371L1.65977 8.70314C2.50384 10.54 5.07954 10.678 6.06588 8.95193C6.06914 8.94622 6.07252 8.94058 6.076 8.935L6.576 8.135C6.66192 7.99753 6.80915 7.91025 6.97098 7.90084C7.13281 7.89143 7.28917 7.96107 7.39043 8.08765L7.79043 8.58765C7.8163 8.61998 7.83805 8.6554 7.85518 8.6931C8.69259 10.5354 11.2663 10.6805 12.2593 8.96344L12.6528 8.17639C12.7408 8.00028 12.9241 7.89225 13.1208 7.90043C13.3175 7.90861 13.4911 8.03149 13.5642 8.2143L13.7598 8.70314Z" fill="white"/>
<path fill-rule="evenodd" clip-rule="evenodd" d="M18 9.4C18.2761 9.4 18.5 9.62386 18.5 9.9V18C18.5 18.2761 18.2761 18.5 18 18.5H2C1.72386 18.5 1.5 18.2761 1.5 18V10C1.5 9.72386 1.72386 9.5 2 9.5C2.27614 9.5 2.5 9.72386 2.5 10V17.5H17.5V9.9C17.5 9.62386 17.7239 9.4 18 9.4Z" fill="white"/>
<path fill-rule="evenodd" clip-rule="evenodd" d="M1.5 0.999998C1.5 0.723856 1.72386 0.499998 2 0.499998H18C18.2761 0.499998 18.5 0.723856 18.5 0.999998V3.6C18.5 3.87614 18.2761 4.1 18 4.1C17.7239 4.1 17.5 3.87614 17.5 3.6V1.5H2.5V3.6C2.5 3.87614 2.27614 4.1 2 4.1C1.72386 4.1 1.5 3.87614 1.5 3.6V0.999998Z" fill="white"/>
<path fill-rule="evenodd" clip-rule="evenodd" d="M7.5 13C7.5 12.7239 7.72386 12.5 8 12.5H12C12.2761 12.5 12.5 12.7239 12.5 13V18C12.5 18.2761 12.2761 18.5 12 18.5H8C7.72386 18.5 7.5 18.2761 7.5 18V13ZM8.5 13.5V17.5H11.5V13.5H8.5Z" fill="white"/>
</svg>
