<svg width="27" height="27" viewBox="0 0 27 27" fill="none" xmlns="http://www.w3.org/2000/svg">
<path fill-rule="evenodd" clip-rule="evenodd" d="M9.1385 19.5905C9.45564 19.4944 9.79062 19.6736 9.88672 19.9907L11.1967 24.3137C11.1996 24.3231 11.2022 24.3326 11.2046 24.3422C11.2918 24.691 11.3016 25.0774 11.1712 25.4427C11.0364 25.82 10.765 26.1353 10.3668 26.3343C9.58417 26.7257 8.61395 26.5213 8.04651 25.7647L8.03583 25.75L5.54683 22.213C5.35613 21.942 5.42122 21.5677 5.69222 21.377C5.96322 21.1863 6.3375 21.2514 6.5282 21.5224L9.01126 25.051C9.22997 25.3369 9.56678 25.3927 9.83019 25.261C9.95605 25.1981 10.0121 25.1203 10.0411 25.0391C10.0736 24.9482 10.0837 24.8151 10.0436 24.6461L8.73829 20.3387C8.64219 20.0216 8.82137 19.6866 9.1385 19.5905Z" fill="white"/>
<path fill-rule="evenodd" clip-rule="evenodd" d="M19.9541 9.48627C20.2808 9.43079 20.5906 9.65066 20.6461 9.97735L23.0028 23.8556C23.2029 24.8862 22.4044 25.8009 21.4963 25.9902C20.7033 26.1818 19.9458 25.7895 19.5629 25.2248L13.2814 16.5877C13.0864 16.3197 13.1457 15.9444 13.4137 15.7495C13.6817 15.5546 14.0569 15.6139 14.2518 15.8819L20.5398 24.5279C20.5446 24.5345 20.5493 24.5412 20.5538 24.5479C20.6952 24.76 20.9743 24.8839 21.2191 24.8227C21.2283 24.8204 21.2376 24.8183 21.2469 24.8164C21.6402 24.7378 21.8783 24.3517 21.8242 24.0814L21.821 24.0642L19.463 10.1782C19.4076 9.85156 19.6274 9.54175 19.9541 9.48627Z" fill="white"/>
<path fill-rule="evenodd" clip-rule="evenodd" d="M22.8831 1.47047C22.0856 1.76584 21.3392 2.30581 21.003 2.64209L8.16554 15.4795C8.16554 15.4795 8.16499 15.4801 7.74797 15.063L8.16554 15.4795C7.76306 15.882 7.29433 16.5567 6.8087 17.3823C6.32898 18.1978 5.8539 19.1232 5.43208 19.9993C5.10222 20.6844 4.80686 21.3353 4.5695 21.8739C5.1072 21.6252 5.75701 21.3159 6.43877 20.9719C7.30672 20.5338 8.21951 20.0429 9.01625 19.5517C9.82439 19.0534 10.4703 18.5806 10.838 18.1845C10.8431 18.1791 10.8482 18.1738 10.8534 18.1685L11.2777 18.5928C10.8534 18.1685 10.8534 18.1685 10.8534 18.1685L23.6914 5.33055C23.7042 5.31773 23.7176 5.30549 23.7316 5.29388C24.0267 5.04792 24.5625 4.32595 24.8618 3.5029C25.1688 2.65864 25.1349 1.98959 24.7394 1.59409C24.343 1.19764 23.7053 1.16594 22.8831 1.47047ZM11.7095 19.0095C11.2254 19.5279 10.4668 20.0671 9.64602 20.5732C8.80936 21.089 7.86359 21.597 6.97942 22.0432C6.09401 22.49 5.2634 22.8784 4.65451 23.155C4.34986 23.2934 4.10023 23.404 3.9264 23.4802C3.83948 23.5183 3.77148 23.5477 3.725 23.5678L3.67173 23.5907L3.65311 23.5987C3.65311 23.5987 3.65266 23.5989 3.41773 23.0468C2.86146 22.8219 2.86152 22.8217 2.86152 22.8217L2.86921 22.8028L2.891 22.7495C2.91008 22.703 2.93814 22.6349 2.97441 22.5479C3.04695 22.3738 3.15239 22.1236 3.28458 21.8179C3.54878 21.207 3.92065 20.3723 4.35088 19.4787C4.78055 18.5863 5.27159 17.6286 5.77438 16.7739C6.27124 15.9292 6.80193 15.1461 7.31646 14.6315L7.73962 15.0547C7.31646 14.6315 7.31646 14.6315 7.31646 14.6315L20.1544 1.79356C20.6042 1.34383 21.4953 0.704806 22.4663 0.345175C23.4125 -0.00528484 24.6744 -0.167987 25.5879 0.74556C26.5024 1.66005 26.3376 2.956 25.9896 3.91299C25.6393 4.87631 25.0101 5.77886 24.5223 6.19675L11.7095 19.0095ZM3.41773 23.0468L2.86152 22.8217C2.77053 23.0468 2.8241 23.3048 2.99733 23.4749C3.17057 23.645 3.4297 23.6937 3.65311 23.5987L3.41773 23.0468Z" fill="white"/>
<path fill-rule="evenodd" clip-rule="evenodd" d="M1.55623 16.4232C1.47503 16.4522 1.39727 16.5083 1.33434 16.6341C1.20207 16.8987 1.25893 17.2372 1.54811 17.4559L4.95069 19.9424C5.21823 20.1379 5.19576 20.2324 5.00024 20.5C4.80473 20.7675 4.51021 21.1067 4.24267 20.9112L0.830659 18.4178C0.0740749 17.8504 -0.130311 16.8802 0.261027 16.0975C0.460092 15.6993 0.775333 15.4279 1.15263 15.2931C1.51792 15.1627 1.9044 15.1725 2.2532 15.2597L2.27013 15.2642L6.46212 16.4432C6.78112 16.5329 6.96699 16.8643 6.87727 17.1833C6.78755 17.5022 6.45622 17.6881 6.13723 17.5984L1.95455 16.422C1.78298 16.3804 1.64809 16.3904 1.55623 16.4232Z" fill="white"/>
<path fill-rule="evenodd" clip-rule="evenodd" d="M2.60907 3.46157L16.4873 5.81826C16.814 5.87373 17.0339 6.18354 16.9784 6.51024C16.9229 6.83693 16.6131 7.0568 16.2864 7.00132L2.40045 4.64333L2.38323 4.64014C2.113 4.5861 1.72692 4.82415 1.64826 5.21746C1.64639 5.2268 1.6443 5.23608 1.64199 5.24531C1.58081 5.49003 1.70466 5.76918 1.91673 5.91056C1.92352 5.91509 1.93021 5.91975 1.93681 5.92455L10.5828 12.2125C10.8508 12.4074 10.6949 12.732 10.5 13C10.3051 13.268 10.145 13.3779 9.87698 13.183L1.23984 6.90145C0.675221 6.51855 0.282871 5.76112 0.474422 4.9681C0.663743 4.05999 1.57848 3.26146 2.60907 3.46157Z" fill="white"/>
<path fill-rule="evenodd" clip-rule="evenodd" d="M20.6352 1.49141C21.8493 1.33964 22.9559 1.65054 23.8848 2.57951C24.517 3.21166 24.8627 3.98634 24.9715 4.75787C25.0232 5.12437 24.8039 5.32045 24.754 5.66991C24.7071 5.99795 24.3282 6.04688 24.0001 6.00002C23.6721 5.95315 23.7367 5.99795 23.7836 5.66991C23.8906 4.92104 23.6759 4.06759 23.0363 3.42804C22.3933 2.78501 21.6659 2.57191 20.784 2.68214C20.4552 2.72324 20.1553 2.49001 20.1142 2.16119C20.0731 1.83238 20.3064 1.53251 20.6352 1.49141Z" fill="white"/>
</svg>
